<svg width="320" height="51" viewBox="0 0 320 51" fill="none" xmlns="http://www.w3.org/2000/svg">
<path d="M4.04545 4.86798C3.54545 3.27565 3.04545 2.22926 2.45455 1.77431C1.89513 1.53162 1.29151 1.40769 0.681818 1.41035C0.272727 1.41035 0 1.36485 0 1.00089C0 0.636933 0.363636 0.591438 0.954545 0.591438C3.22727 0.591438 5.59091 0.727924 6 0.727924C6.40909 0.727924 8.31818 0.591438 10.8182 0.591438C11.4545 0.591438 11.7273 0.727924 11.7273 1.00089C11.7273 1.27386 11.4091 1.41035 10.9545 1.41035C10.5856 1.3882 10.2158 1.43447 9.86364 1.54684C9.5 1.72882 9.40909 2.04728 9.40909 2.54773C9.40909 3.04817 9.81818 4.59501 10.3636 6.5513C11.0909 9.41749 15.1364 22.6111 15.9091 25.0223H16.0455L24.5 2.36575C24.9545 1.13738 25.2273 0.773419 25.5909 0.773419C25.9545 0.773419 26.2727 1.45584 26.8636 2.8207L35.9091 24.7493H36.0455C36.8182 21.8376 40.2727 10.3274 41.8182 5.23194C42.0825 4.40829 42.2204 3.54927 42.2273 2.68421C42.2273 2.00179 41.8636 1.41035 40.1818 1.41035C39.7273 1.41035 39.4091 1.27386 39.4091 1.00089C39.4091 0.727924 39.7727 0.591438 40.4091 0.591438C42.7273 0.591438 44.5455 0.727924 44.9545 0.727924C45.3636 0.727924 47.1364 0.591438 48.5455 0.591438C49.0455 0.591438 49.3636 0.682428 49.3636 0.955399C49.3636 1.22837 49.1364 1.41035 48.7273 1.41035C48.2215 1.40601 47.7173 1.46718 47.2273 1.59233C46.1818 2.00179 45.6818 3.7306 44.7727 6.23283C42.7727 11.7377 38.1818 25.5682 36.0909 32.1195C35.5909 33.6209 35.3636 34.1213 34.8182 34.1213C34.2727 34.1213 34.0909 33.6209 33.4545 32.0285L24.4091 10.1909H24.3182C23.5 12.4202 17.7273 27.843 15.8182 31.8466C15 33.6209 14.7727 34.1213 14.2727 34.1213C13.7727 34.1213 13.6364 33.6664 13.2727 32.529L4.04545 4.86798Z" fill="black"/>
<path d="M50.3636 17.0607C50.3636 9.64496 55.3182 0 68.3636 0C79.1818 0 85.9546 6.32382 85.9546 16.2872C85.9546 26.2507 78.9546 34.1213 67.9091 34.1213C55.4546 34.1213 50.3636 24.7948 50.3636 17.0607ZM79.8636 17.8796C79.8636 8.14362 74.2273 2.09277 67.0909 2.09277C62.0909 2.09277 56.4091 4.86797 56.4091 15.7413C56.4091 24.7948 61.4091 31.9831 69.7273 31.9831C72.7727 31.9831 79.8636 30.4817 79.8636 17.8796Z" fill="black"/>
<path d="M95.0454 13.2391C95.0454 6.64229 95.0454 5.41392 94.9545 4.00357C94.8636 2.59322 94.5 1.81981 93.0909 1.54684C92.521 1.4447 91.9425 1.39898 91.3636 1.41035C90.9091 1.41035 90.6364 1.31936 90.6364 1.00089C90.6364 0.682429 90.9545 0.591438 91.5909 0.591438C93.9091 0.591438 96.6364 0.727924 97.5454 0.727924L103.682 0.591438C106.455 0.591438 109.364 0.864409 111.682 2.50223C112.607 3.19683 113.359 4.09624 113.88 5.13014C114.4 6.16404 114.675 7.30441 114.682 8.46209C114.682 11.6922 113.318 14.6494 108.909 18.198C112.773 23.066 115.773 26.9786 118.364 29.6628C120.955 32.347 122.591 32.4835 123.227 32.62L124.455 32.7565C124.818 32.7565 124.955 32.893 124.955 33.1204C124.955 33.3479 124.682 33.5299 124.136 33.5299H120C117.591 33.5299 116.5 33.3024 115.364 32.711C113.5 31.7101 111.818 29.6628 109.409 26.2962C107.636 23.9304 105.636 20.9277 105.091 20.2908C104.997 20.1797 104.878 20.0929 104.743 20.0374C104.609 19.982 104.463 19.9597 104.318 19.9724L100.5 19.8814C100.318 19.8814 100.182 19.9723 100.182 20.2453V20.8823C100.182 24.9313 100.182 28.3434 100.409 30.1632C100.636 31.9831 100.773 32.3925 102.091 32.5745C102.799 32.6764 103.512 32.7372 104.227 32.7565C104.545 32.7565 104.727 32.893 104.727 33.1204C104.727 33.3479 104.455 33.5299 103.864 33.5299C101.364 33.5299 98.1364 33.3934 97.4545 33.3934L92.1818 33.5299C91.5909 33.5299 91.3182 33.3934 91.3182 33.1204C91.3182 32.8475 91.4545 32.7565 92 32.7565C92.5205 32.7575 93.0394 32.6964 93.5454 32.5745C94.4091 32.3925 94.6364 31.4371 94.8182 30.1632C95 28.8894 95.0454 24.9313 95.0454 20.8823V13.2391ZM100.182 16.6967C100.182 17.1517 100.273 17.3336 100.545 17.4701C101.625 17.7709 102.743 17.9089 103.864 17.8796C105.591 17.8796 106.182 17.7431 106.955 17.1517C107.727 16.5602 109.545 14.1945 109.545 10.6459C109.545 4.45852 105.455 2.63872 102.864 2.63872C102.086 2.60274 101.308 2.66387 100.545 2.8207C100.273 2.91169 100.182 3.09367 100.182 3.45763V16.6967Z" fill="black"/>
<path d="M133.318 20.8822C133.318 26.4781 133.318 29.4808 134.227 30.2542C135.136 31.0277 136.091 31.2096 139.5 31.2096C141.818 31.2096 143.5 31.1641 144.591 30.0268C145.196 29.2634 145.589 28.3528 145.727 27.388C145.773 27.0241 145.864 26.7511 146.227 26.7511C146.591 26.7511 146.545 26.9786 146.545 27.479C146.466 29.1614 146.253 30.8348 145.909 32.4835C145.636 33.4389 145.409 33.6664 143.182 33.6664C136.909 33.6664 134.045 33.3934 130.5 33.3934L125 33.5299C124.455 33.5299 124.136 33.3934 124.136 33.1204C124.136 32.8475 124.318 32.7565 124.864 32.7565C125.384 32.7546 125.902 32.6936 126.409 32.5745C127.273 32.3925 127.5 31.4371 127.682 30.1632C127.864 28.8894 127.909 24.9313 127.909 20.8822V13.2391C127.909 6.64229 127.909 5.41392 127.818 4.00357C127.727 2.59322 127.364 1.81981 125.909 1.54684C125.447 1.44499 124.973 1.39916 124.5 1.41035C124 1.41035 123.773 1.31936 123.773 1.00089C123.773 0.682429 124.045 0.591438 124.727 0.591438C126.773 0.591438 129.5 0.727924 130.682 0.727924L136.591 0.591438C137.182 0.591438 137.5 0.682429 137.5 1.00089C137.5 1.31936 137.227 1.41035 136.727 1.41035C136.164 1.41061 135.601 1.45626 135.045 1.54684C133.864 1.72882 133.5 2.50223 133.409 4.00357C133.318 5.50491 133.318 6.64229 133.318 13.2391V20.8822Z" fill="black"/>
<path d="M154.227 13.2391C154.227 6.64229 154.227 5.41392 154.136 4.00357C154.045 2.59322 153.682 1.81981 152.273 1.54684C151.703 1.4447 151.124 1.39898 150.545 1.41035C150.091 1.41035 149.818 1.31936 149.818 1.00089C149.818 0.682429 150.136 0.591438 150.773 0.591438C153.091 0.591438 155.818 0.727924 157.045 0.727924C158.273 0.727924 161.136 0.591438 163.727 0.591438C169.182 0.591438 176.455 0.591438 181.182 5.5959C183.364 7.82516 185.409 11.4648 185.409 16.6512C185.454 21.1582 183.76 25.5089 180.682 28.7984C178.682 30.8457 174.136 33.9393 166.091 33.9393C162.909 33.9393 159 33.3934 156.818 33.3934L151.364 33.5299C150.773 33.5299 150.455 33.3934 150.455 33.1204C150.455 32.8475 150.636 32.7565 151.182 32.7565C151.702 32.7575 152.221 32.6964 152.727 32.5745C153.591 32.3925 153.818 31.4371 154 30.1632C154.182 28.8894 154.227 24.9313 154.227 20.8822V13.2391ZM159.636 18.0161C159.636 22.6566 159.682 25.9777 159.727 26.8421C159.773 27.7065 159.864 29.6628 160.227 30.1178C160.591 30.5727 162.5 31.8921 165.909 31.8921C170.364 31.8921 173.318 31.0277 175.909 28.7529C178.5 26.4781 179.591 22.3836 179.591 17.8796C179.591 12.3747 177.273 8.78055 175.409 7.00625C171.409 3.18466 166.455 2.63872 163.045 2.63872C162.182 2.63872 160.545 2.7752 160.227 2.95718C160.052 3.01797 159.902 3.13665 159.803 3.29373C159.704 3.4508 159.661 3.63695 159.682 3.82159C159.636 5.32293 159.636 9.09902 159.636 12.5566V18.0161Z" fill="black"/>
<path d="M191.045 4.86798C190.545 3.27565 190.045 2.22926 189.455 1.77431C188.911 1.53269 188.322 1.40866 187.727 1.41035C187.273 1.41035 187 1.36485 187 1.00089C187 0.636933 187.364 0.591438 188 0.591438C190.227 0.591438 192.636 0.727924 193.045 0.727924C193.455 0.727924 195.318 0.591438 197.864 0.591438C198.455 0.591438 198.773 0.727924 198.773 1.00089C198.773 1.27386 198.409 1.41035 198 1.41035C197.631 1.38251 197.26 1.42892 196.909 1.54684C196.5 1.72882 196.409 2.04728 196.409 2.54773C196.409 3.04817 196.864 4.59501 197.364 6.5513C198.136 9.41749 202.182 22.6111 202.955 25.0223H203.091L211.5 2.36575C212 1.13738 212.273 0.773419 212.591 0.773419C212.909 0.773419 213.318 1.45584 213.864 2.8207L222.909 24.7493H223.045C223.818 21.8376 227.318 10.3274 228.818 5.23194C229.093 4.4095 229.246 3.55113 229.273 2.68421C229.273 2.00179 228.864 1.41035 227.182 1.41035C226.727 1.41035 226.455 1.27386 226.455 1.00089C226.455 0.727924 226.773 0.591438 227.455 0.591438C229.727 0.591438 231.591 0.727924 231.955 0.727924C232.318 0.727924 234.136 0.591438 235.591 0.591438C236.045 0.591438 236.364 0.682428 236.364 0.955399C236.364 1.22837 236.136 1.41035 235.773 1.41035C235.252 1.4061 234.733 1.46723 234.227 1.59233C233.182 2.00179 232.727 3.7306 231.773 6.23283C229.773 11.7377 225.227 25.5682 223.091 32.1195C222.591 33.6209 222.409 34.1213 221.818 34.1213C221.227 34.1213 221.136 33.6209 220.5 32.0285L211.409 10.1909H211.364C210.5 12.4202 204.727 27.843 202.864 31.8466C202.045 33.6209 201.818 34.1213 201.273 34.1213C200.727 34.1213 200.636 33.6664 200.273 32.529L191.045 4.86798Z" fill="black"/>
<path d="M242.136 13.2391C242.136 6.64229 242.136 5.41392 242.045 4.00357C241.954 2.59322 241.545 1.77431 240.591 1.54684C240.066 1.45425 239.533 1.40858 239 1.41035C238.591 1.41035 238.318 1.31936 238.318 0.955399C238.318 0.591438 238.682 0.591438 239.364 0.591438L245 0.727924L250.318 0.591438C250.909 0.591438 251.227 0.682428 251.227 0.955399C251.227 1.22837 251 1.41035 250.545 1.41035C250.103 1.41534 249.661 1.46103 249.227 1.54684C248.045 1.72882 247.727 2.50223 247.636 4.00357C247.545 5.50491 247.545 6.64229 247.545 13.2391V20.8823C247.545 25.1133 247.545 28.5709 247.727 30.4362C247.864 31.6191 248.136 32.3925 249.454 32.5745C250.193 32.6802 250.936 32.741 251.682 32.7565C252.136 32.7565 252.364 32.893 252.364 33.1204C252.364 33.3479 252.045 33.5299 251.545 33.5299C248.682 33.5299 245.954 33.3934 244.773 33.3934L239.273 33.5299C238.727 33.5299 238.409 33.3934 238.409 33.1204C238.409 32.8475 238.591 32.7565 239.091 32.7565C239.626 32.7573 240.16 32.6963 240.682 32.5745C241.545 32.3925 241.818 31.6646 241.909 30.3907C242 29.1169 242.136 25.1133 242.136 20.8823V13.2391Z" fill="black"/>
<path d="M261.818 13.2391C261.818 6.64229 261.818 5.41392 261.727 4.00357C261.636 2.59322 261.273 1.81981 259.864 1.54684C259.309 1.4465 258.746 1.40079 258.182 1.41035C257.682 1.41035 257.409 1.31936 257.409 1.00089C257.409 0.682429 257.727 0.591438 258.364 0.591438C260.682 0.591438 263.409 0.727924 264.636 0.727924C265.864 0.727924 268.727 0.591438 271.364 0.591438C276.773 0.591438 284.045 0.591438 288.773 5.5959C290.955 7.82516 293 11.4648 293 16.6512C293.068 21.1626 291.372 25.5219 288.273 28.7984C286.273 30.8457 281.727 33.9393 273.682 33.9393C270.5 33.9393 266.591 33.3934 264.409 33.3934L258.955 33.5299C258.364 33.5299 258.091 33.3934 258.091 33.1204C258.091 32.8475 258.227 32.7565 258.773 32.7565C259.293 32.7575 259.812 32.6964 260.318 32.5745C261.227 32.3925 261.409 31.4371 261.591 30.1632C261.773 28.8894 261.818 24.9313 261.818 20.8822V13.2391ZM267.273 18.0161C267.273 22.6566 267.318 25.9777 267.364 26.8421C267.409 27.7065 267.455 29.6628 267.818 30.1178C268.182 30.5727 270.091 31.8921 273.5 31.8921C277.955 31.8921 280.909 31.0277 283.545 28.7529C286.182 26.4781 287.182 22.3836 287.182 17.8796C287.182 12.3747 284.864 8.78055 283 7.00625C279 3.18466 274.045 2.63872 270.636 2.63872C269.773 2.63872 268.182 2.7752 267.818 2.95718C267.455 3.13916 267.318 3.36664 267.318 3.82159C267.273 5.32293 267.273 9.09902 267.273 12.5566V18.0161Z" fill="black"/>
<path d="M302.136 13.2391C302.136 6.64228 302.136 5.41392 302.045 4.00357C301.955 2.59322 301.591 1.8198 300.182 1.54683C299.612 1.4447 299.033 1.39898 298.455 1.41035C298 1.41035 297.727 1.31936 297.727 1.00089C297.727 0.682427 298.045 0.591437 298.682 0.591437C301 0.591437 303.727 0.727922 304.955 0.727922H315.818L317.682 0.500447C317.918 0.418577 318.162 0.357682 318.409 0.318466C318.591 0.318466 318.636 0.500447 318.636 0.682427C318.636 0.864407 318.455 1.54683 318.318 3.54862C318.273 3.95807 318.182 5.86887 318.091 6.41481C318 6.96075 317.955 6.86976 317.636 6.86976C317.318 6.86976 317.273 6.68778 317.273 6.27832C317.276 5.73567 317.183 5.19673 317 4.686C316.682 3.91258 316.273 3.41213 314.091 3.13916C313.364 3.04817 308.773 2.95718 307.909 2.95718C307.045 2.95718 307.591 3.09367 307.591 3.41213V14.3764C307.591 14.6949 307.636 14.8314 307.909 14.8314H314.864C315.909 14.7404 316.545 14.6039 316.955 14.149C317.364 13.694 317.455 13.603 317.636 13.603C317.68 13.5949 317.725 13.5975 317.767 13.6106C317.809 13.6237 317.848 13.647 317.879 13.6783C317.911 13.7097 317.934 13.7482 317.947 13.7906C317.96 13.833 317.963 13.8779 317.955 13.9215C317.779 14.9761 317.658 16.0391 317.591 17.1062C317.5 17.9706 317.455 19.7449 317.455 20.0178C317.455 20.2908 317.455 20.8822 317.045 20.8822C316.99 20.8898 316.934 20.8843 316.88 20.8664C316.827 20.8485 316.779 20.8186 316.74 20.7789C316.7 20.7393 316.67 20.6911 316.652 20.638C316.634 20.5849 316.629 20.5283 316.636 20.4728C316.613 19.9384 316.553 19.4063 316.455 18.8805C316.273 18.0161 315.636 17.3791 314.045 17.1971C313.227 17.1062 308.909 17.0607 307.864 17.0607C307.636 17.0607 307.591 17.2426 307.591 17.5156V20.9277C307.591 22.4291 307.545 26.4326 307.591 27.7065C307.682 30.7092 308.364 31.3461 312.818 31.3461C313.955 31.3461 315.773 31.3461 316.909 30.8457C318.045 30.3452 318.545 29.3898 318.864 27.6155C318.955 27.1151 319.045 26.9786 319.364 26.9786C319.682 26.9786 319.682 27.2971 319.682 27.752C319.62 29.3708 319.438 30.9828 319.136 32.5745C318.818 33.7119 318.455 33.7119 316.773 33.7119C310.227 33.7119 307.273 33.4389 304.727 33.4389L299.227 33.5754C298.682 33.5754 298.364 33.4389 298.364 33.1659C298.364 32.893 298.545 32.802 299.091 32.802C299.611 32.8001 300.13 32.7391 300.636 32.62C301.5 32.438 301.727 31.4826 301.909 30.2087C302.091 28.9349 302.136 24.9768 302.136 20.9277V13.2391Z" fill="black"/>
<path d="M11.8636 46.2685C11.8757 46.2685 11.8872 46.2637 11.8958 46.2552C11.9043 46.2466 11.9091 46.2351 11.9091 46.223V45.9955C11.9376 45.2522 11.9224 44.5078 11.8636 43.7663C11.8636 43.4023 11.7727 43.2658 11.4545 43.1748H11.0454C10.9091 43.1748 10.8636 43.1748 10.8636 43.0838C10.8636 42.9929 10.9091 42.9929 11.0909 42.9929H13.9091C14.0454 42.9929 14.0909 43.0384 14.0909 43.0838C14.0909 43.1293 14.0454 43.1748 13.9091 43.1748H13.6363C13.3182 43.2203 13.2727 43.4023 13.2273 43.7663V47.8153C13.2273 48.7707 13.2273 49.5896 13.2727 50.0446C13.3182 50.4995 13.3636 50.5905 13.6818 50.636H14.1818C14.3182 50.636 14.3636 50.636 14.3636 50.727C14.3636 50.818 14.2727 50.818 14.1818 50.818H11.2273C11.0909 50.818 11 50.7725 11 50.727C11 50.6815 11.0454 50.636 11.1818 50.636H11.5454C11.7727 50.5905 11.8182 50.3631 11.8636 50.0446C11.9091 49.7261 11.9091 48.7707 11.9091 47.8153V46.9054H7.77271V47.8153C7.74582 48.5597 7.77621 49.3049 7.86362 50.0446C7.86362 50.3631 7.95453 50.5905 8.27271 50.636H8.77271C8.90907 50.636 8.95453 50.636 8.95453 50.727C8.95453 50.818 8.86362 50.818 8.72726 50.818H5.81817C5.6818 50.818 5.59089 50.7725 5.59089 50.727C5.59089 50.6815 5.63635 50.636 5.77271 50.636H6.13635C6.31817 50.5905 6.40907 50.3631 6.45453 50.0446C6.49998 49.7261 6.49998 48.7707 6.49998 47.8153V45.9955C6.52851 45.2522 6.51333 44.5078 6.45453 43.7663C6.45453 43.4023 6.36362 43.2658 5.99998 43.1748H5.59089C5.49998 43.1748 5.45453 43.1748 5.45453 43.0838C5.45453 42.9929 5.49998 42.9929 5.63635 42.9929H8.45453C8.63635 42.9929 8.6818 43.0384 8.6818 43.0838C8.6818 43.1293 8.63635 43.1748 8.49998 43.1748H8.1818C7.90907 43.2203 7.81817 43.4023 7.81817 43.7663C7.75936 44.5078 7.74418 45.2522 7.77271 45.9955V46.223C7.77271 46.2685 7.81816 46.2685 7.86362 46.2685H11.8636Z" fill="black"/>
<path d="M24 46.9054C24 45.1311 25.1818 42.8109 28.3182 42.8109C31.4545 42.8109 32.5455 44.3122 32.5455 46.7235C32.5648 47.2942 32.466 47.8627 32.2553 48.3934C32.0445 48.924 31.7264 49.4053 31.3208 49.807C30.9153 50.2086 30.4311 50.5219 29.8987 50.7273C29.3663 50.9326 28.7972 51.0254 28.2273 51C25.2273 51 24 48.7707 24 46.9054ZM31.0909 47.0874C31.0909 44.7672 29.7273 43.3113 28.0455 43.3113C26.3636 43.3113 25.4545 43.9938 25.4545 46.587C25.4545 49.1802 26.6818 50.4996 28.6818 50.4996C29.4091 50.4996 31.0909 50.1356 31.0909 47.0874Z" fill="black"/>
<path d="M43.8182 42.9929C43.8182 42.8109 43.9091 42.7199 44 42.7199C44.0909 42.7199 44.1364 42.7654 44.2727 43.0384L47.0909 48.9527L49.9546 42.9929C50.0455 42.8109 50.0909 42.7199 50.1818 42.7199C50.2727 42.7199 50.3182 42.8109 50.3636 43.0384L51.3182 49.4987C51.4091 50.1811 51.5 50.4541 51.8182 50.545L52.5 50.6815H52.6364C52.6364 50.7725 52.5 50.818 52.3636 50.818L50.2727 50.727C50 50.727 49.9546 50.6815 49.9546 50.636C49.9546 50.5905 50 50.545 50.0455 50.4996C50.0909 50.4541 50.1818 50.3631 50.1364 50.0446L49.5 45.4951H49.4546L47.1818 50.2721C46.9546 50.7725 46.8636 50.8635 46.7727 50.8635C46.6818 50.8635 46.5909 50.636 46.4091 50.3176L45.2273 47.9518L44.1364 45.6316H44.0909L43.5455 49.7716C43.5455 49.9991 43.5 50.0901 43.5 50.2721C43.4993 50.3612 43.5313 50.4475 43.59 50.5146C43.6486 50.5817 43.7298 50.6249 43.8182 50.636H44.4091C44.4091 50.727 44.3182 50.7725 44.1818 50.7725H42.0455C41.9546 50.7725 41.8636 50.727 41.8636 50.636H42.3182C42.6364 50.5905 42.7273 50.1811 42.7727 49.8171L43.8182 42.9929Z" fill="black"/>
<path d="M62.9546 45.9955C62.9831 45.2522 62.9679 44.5078 62.9091 43.7663C62.9091 43.4023 62.8182 43.2658 62.4546 43.1748H62.0455C61.9546 43.1748 61.8636 43.1748 61.8636 43.0838C61.8636 42.9929 61.9546 42.9929 62.0909 42.9929H66.2273L66.6818 42.9019H66.8182C66.9091 42.9019 66.9091 42.9474 66.9091 42.9929C66.9091 43.0384 66.8636 43.2203 66.8182 43.6753C66.7727 44.1302 66.7727 44.2667 66.7727 44.3577C66.7727 44.4487 66.7273 44.4942 66.6818 44.4942C66.6457 44.4942 66.611 44.4798 66.5854 44.4542C66.5598 44.4286 66.5455 44.3939 66.5455 44.3577C66.5504 44.2197 66.5351 44.0818 66.5 43.9483C66.4091 43.7663 66.3182 43.6753 65.8182 43.5843H64.3182C64.2727 43.5843 64.2273 43.6298 64.2273 43.7208V46.3595L64.3182 46.4505H66C66.2273 46.405 66.4091 46.405 66.5 46.2685C66.5909 46.132 66.5909 46.132 66.6818 46.132C66.7081 46.1554 66.7244 46.188 66.7273 46.223C66.7273 46.314 66.6818 46.4505 66.6364 46.9964C66.5909 47.5424 66.5909 47.6334 66.5909 47.6789C66.5909 47.7244 66.5909 47.9063 66.5 47.9063C66.4759 47.9063 66.4528 47.8967 66.4357 47.8797C66.4187 47.8626 66.4091 47.8395 66.4091 47.8153C66.4162 47.6773 66.4009 47.539 66.3636 47.4059C66.3182 47.2239 66.1818 47.0419 65.7727 46.9964H64.3182L64.2273 47.0874V49.5442C64.2727 50.2721 64.4546 50.4086 65.5 50.4086C65.8391 50.4303 66.1791 50.3839 66.5 50.2721C66.7727 50.1811 66.8636 49.9536 66.9546 49.4987C67.0455 49.0437 67 49.3622 67.0455 49.3622C67.0909 49.3622 67.1364 49.4532 67.1364 49.5442C67.1134 49.9407 67.0679 50.3356 67 50.727C66.9546 50.9545 66.8636 50.9545 66.4546 50.9545H62.2273C62.0909 50.9545 62.0455 50.909 62.0455 50.8635C62.0455 50.818 62.0909 50.7725 62.1818 50.7725H62.5909C62.7727 50.727 62.8182 50.4996 62.8636 50.1811C62.9511 49.4414 62.9814 48.6961 62.9546 47.9518V45.9955Z" fill="black"/>
<path d="M79.4546 47.8153C79.4264 48.5597 79.4568 49.3051 79.5455 50.0446C79.5455 50.3631 79.6364 50.5905 79.9546 50.636H80.4546C80.5909 50.636 80.6364 50.636 80.6364 50.727C80.6364 50.818 80.5455 50.818 80.4091 50.818H77.5C77.3637 50.818 77.2728 50.7725 77.2728 50.727C77.2728 50.6815 77.3182 50.636 77.4091 50.636H77.8182C78 50.5905 78.0455 50.3631 78.0909 50.0446C78.1364 49.7261 78.1364 48.8162 78.1364 47.8153V43.7663C78.1364 43.4023 78.0455 43.2658 77.6818 43.1748H77.2728C77.1818 43.1748 77.0909 43.1748 77.0909 43.0838C77.0909 42.9929 77.1818 42.9929 77.3637 42.9929H82.0455L82.1819 42.9019C82.206 42.9019 82.2291 42.9115 82.2461 42.9285C82.2632 42.9456 82.2728 42.9687 82.2728 42.9929C82.2728 43.0838 82.2273 43.2203 82.1819 43.4933C82.1364 43.7663 82.1364 44.2212 82.1364 44.3122C82.1364 44.4032 82.0909 44.4942 82.0455 44.4942C82 44.4942 81.9546 44.4032 81.9091 44.3122C81.9141 44.1742 81.8988 44.0363 81.8637 43.9028C81.7898 43.7925 81.6873 43.7046 81.5671 43.6484C81.4469 43.5923 81.3137 43.5701 81.1819 43.5843H79.5455C79.5 43.5843 79.4546 43.5843 79.4546 43.7208V46.314C79.4546 46.405 79.5 46.405 79.5455 46.405H81.3637C81.448 46.4089 81.5322 46.3947 81.6107 46.3633C81.6891 46.3319 81.7598 46.2841 81.8182 46.223C81.8637 46.132 81.8637 46.0865 81.9546 46.0865C82.0455 46.0865 82 46.132 82 46.1775C82 46.223 81.9546 46.5415 81.9091 46.8599C81.8637 47.1784 81.8637 47.5424 81.8637 47.5879C81.8637 47.6334 81.8637 47.8153 81.7728 47.8153C81.6818 47.8153 81.6818 47.7244 81.6818 47.6789C81.6865 47.5559 81.6711 47.433 81.6364 47.3149C81.587 47.2104 81.5102 47.1213 81.4141 47.0572C81.318 46.9931 81.2063 46.9564 81.0909 46.9509H79.5455C79.5 46.9509 79.4546 46.9509 79.4546 47.0419V47.8153Z" fill="black"/>
<path d="M92.8182 45.9955V43.7663C92.7727 43.4023 92.7273 43.2658 92.3636 43.1748H91.9545C91.8182 43.1748 91.7727 43.1748 91.7727 43.0838C91.7727 42.9929 91.8636 42.9929 92 42.9929H94.8182C94.9545 42.9929 95.0454 43.0384 95.0454 43.0838C95.0454 43.1293 95 43.1748 94.8636 43.1748H94.5909C94.2727 43.2203 94.2273 43.4023 94.1818 43.7663V47.4514C94.1818 48.9527 94.4545 49.5896 95 49.9991C95.3501 50.3088 95.8058 50.4717 96.2727 50.4541C96.5428 50.4615 96.8116 50.4127 97.0619 50.3109C97.3123 50.2091 97.5388 50.0565 97.7273 49.8626C98.3182 49.3167 98.3182 48.3613 98.3182 47.2694V43.7663C98.2727 43.4023 98.2273 43.2658 97.8636 43.1748H97.5C97.3636 43.1748 97.3182 43.1748 97.3182 43.0838C97.3182 42.9929 97.3636 42.9929 97.5454 42.9929H99.9091C100.045 42.9929 100.136 43.0384 100.136 43.0838C100.136 43.1293 100.091 43.1748 99.9545 43.1748H99.6363C99.3636 43.2203 99.2727 43.4023 99.2727 43.7663C99.2139 44.5078 99.1987 45.2522 99.2273 45.9955V47.0874C99.2273 48.2703 99.1363 49.4987 98.2727 50.2266C97.666 50.7455 96.8887 51.0211 96.0909 51C95.2545 51.0549 94.4278 50.7953 93.7727 50.2721C93.2273 49.8171 92.8182 49.0437 92.8182 47.4969V45.9955Z" fill="black"/>
<path d="M110.818 45.9955C110.847 45.2522 110.832 44.5078 110.773 43.7663C110.773 43.4023 110.682 43.2658 110.318 43.1748H109.909C109.818 43.1748 109.727 43.1748 109.727 43.0839C109.727 42.9929 109.818 42.9929 110 42.9929H112.864C113.545 42.958 114.222 43.1157 114.818 43.4478C115.03 43.6172 115.201 43.8318 115.319 44.0758C115.436 44.3198 115.499 44.5871 115.5 44.8582C115.5 45.6316 115.182 46.3595 114.136 47.2239C114.839 48.1784 115.598 49.09 116.409 49.9536C116.704 50.3296 117.123 50.5878 117.591 50.6815H117.864C117.955 50.6815 118 50.6815 118 50.7725C118 50.8635 117.909 50.8635 117.773 50.8635H116.818C116.425 50.9105 116.027 50.8308 115.682 50.636C115.227 50.4086 114.818 49.9081 114.227 49.1347C113.636 48.3613 113.364 47.8153 113.227 47.6789L113.045 47.5879H112.136C112.045 47.5879 112.045 47.5879 112.045 47.6789V47.8153C112.045 48.7707 112.045 49.5897 112.091 50.0446C112.136 50.4996 112.182 50.5905 112.5 50.636H113C113.091 50.636 113.136 50.636 113.136 50.727C113.136 50.818 113.045 50.818 112.909 50.818H110.091C110 50.818 109.909 50.7725 109.909 50.727C109.909 50.6815 109.955 50.636 110.091 50.636H110.455C110.636 50.5905 110.727 50.3631 110.773 50.0446C110.818 49.7261 110.818 48.7707 110.818 47.8153V45.9955ZM112.045 46.8145C112.045 46.9054 112.045 46.9509 112.136 46.9964C112.387 47.071 112.648 47.1018 112.909 47.0874C113.18 47.1141 113.452 47.0501 113.682 46.9054C113.89 46.7085 114.051 46.4672 114.153 46.1994C114.256 45.9317 114.296 45.6443 114.273 45.3586C114.273 43.8573 113.318 43.4478 112.682 43.4478H112.136C112.045 43.4478 112.045 43.4933 112.045 43.5843V46.8145Z" fill="black"/>
<path d="M127.909 49.4532C127.909 50.2266 128.045 50.4996 128.273 50.5905L128.818 50.6815C128.909 50.6815 129 50.6815 129 50.7725C129 50.8635 128.909 50.8635 128.727 50.8635H126.318C126.182 50.8635 126.091 50.8635 126.091 50.7725C126.091 50.6815 126.136 50.6815 126.273 50.6815H126.727C127 50.5905 127.045 50.2721 127.045 49.3622L127.136 43.1748C127.136 42.9474 127.182 42.8109 127.273 42.8109C127.364 42.8109 127.5 42.9474 127.682 43.1294C127.864 43.3113 129.364 44.9946 130.909 46.496L133.182 48.8617H133.273L133.136 44.1302C133.136 43.4933 133.045 43.3113 132.773 43.2203C132.602 43.1416 132.414 43.1101 132.227 43.1294C132.136 43.1294 132.091 43.1293 132.091 43.0384C132.091 42.9474 132.182 42.9474 132.364 42.9474H134.636C134.773 42.9474 134.864 42.9474 134.864 43.0384C134.864 43.1293 134.818 43.1294 134.682 43.1294H134.364C134.091 43.2203 134 43.4478 134 43.9938L133.864 50.5905C133.864 50.818 133.818 50.9545 133.727 50.9545C133.636 50.9545 133.5 50.818 133.364 50.727L130.318 47.6334C129.182 46.496 128 45.1766 127.818 44.9946H127.773L127.909 49.4532Z" fill="black"/>
<path d="M145.818 45.9955V43.7663C145.773 43.4023 145.682 43.2203 145.455 43.1748H145.091C144.955 43.1748 144.909 43.1748 144.909 43.0838C144.909 42.9929 145 42.9929 145.136 42.9929H147.773C147.909 42.9929 148 43.0384 148 43.0838C148 43.1293 147.955 43.1748 147.864 43.1748H147.545C147.227 43.2203 147.182 43.4023 147.136 43.7663V47.8153C147.136 48.8162 147.136 49.6806 147.182 50.0901C147.227 50.4995 147.273 50.5905 147.591 50.636H148.091C148.227 50.636 148.273 50.636 148.273 50.727C148.273 50.818 148.182 50.818 148.091 50.818H145.136C145 50.818 144.909 50.7725 144.909 50.727C144.909 50.6815 144.955 50.636 145.091 50.636H145.455C145.682 50.5905 145.727 50.4086 145.773 50.0901C145.818 49.7716 145.818 48.8162 145.818 47.8153V45.9955Z" fill="black"/>
<path d="M158.591 50.727C158.409 50.636 158.409 50.5905 158.409 50.3631C158.409 50.1356 158.455 49.1802 158.455 48.9982C158.455 48.8162 158.5 48.7252 158.591 48.7252C158.682 48.7252 158.682 48.8162 158.682 48.9072C158.694 49.0918 158.724 49.2747 158.773 49.4532C158.865 49.773 159.065 50.0513 159.338 50.2417C159.611 50.4322 159.941 50.5232 160.273 50.4996C160.444 50.5184 160.616 50.5023 160.781 50.4525C160.945 50.4026 161.098 50.3199 161.23 50.2093C161.361 50.0988 161.469 49.9627 161.547 49.8093C161.625 49.6559 161.671 49.4883 161.682 49.3167C161.682 48.8162 161.5 48.3158 160.636 47.6334L160.182 47.2694C159 46.3595 158.636 45.6316 158.636 44.7672C158.636 43.9028 159.591 42.8109 161.045 42.8109C161.507 42.7958 161.968 42.8573 162.409 42.9929C162.445 42.9929 162.48 43.0072 162.505 43.0328C162.531 43.0584 162.545 43.0932 162.545 43.1294V44.3577C162.545 44.5852 162.5 44.6762 162.409 44.6762C162.318 44.6762 162.318 44.6307 162.318 44.4942C162.302 44.2435 162.206 44.0045 162.045 43.8118C161.92 43.6299 161.749 43.4838 161.55 43.3881C161.35 43.2924 161.13 43.2502 160.909 43.2658C160.136 43.2658 159.636 43.7208 159.636 44.3577C159.636 44.9946 159.909 45.2221 160.773 45.8591L161.045 46.0865C162.318 47.0419 162.773 47.7698 162.773 48.7707C162.779 49.1349 162.69 49.4944 162.514 49.8136C162.339 50.1327 162.083 50.4005 161.773 50.5905C161.277 50.8785 160.709 51.0204 160.136 51C159.608 51.0145 159.082 50.9216 158.591 50.727Z" fill="black"/>
<path d="M179.227 46.2685C179.273 46.2685 179.318 46.2685 179.318 46.223V45.9955C179.347 45.2522 179.332 44.5078 179.273 43.7663C179.273 43.4023 179.182 43.2658 178.818 43.1748H178.409C178.318 43.1748 178.227 43.1748 178.227 43.0838C178.227 42.9929 178.318 42.9929 178.455 42.9929H181.273C181.409 42.9929 181.5 43.0384 181.5 43.0838C181.5 43.1293 181.455 43.1748 181.318 43.1748H181C180.727 43.2203 180.636 43.4023 180.636 43.7663C180.578 44.5078 180.562 45.2522 180.591 45.9955V47.8153C180.591 48.7707 180.591 49.5896 180.636 50.0446C180.682 50.4995 180.727 50.5905 181.045 50.636H181.591C181.727 50.636 181.773 50.636 181.773 50.727C181.773 50.818 181.682 50.818 181.545 50.818H178.636C178.455 50.818 178.409 50.7725 178.409 50.727C178.409 50.6815 178.455 50.636 178.545 50.636H178.955C179.136 50.5905 179.182 50.3631 179.227 50.0446C179.315 49.3049 179.345 48.5597 179.318 47.8153V46.9054H175.182V47.8153C175.182 48.7707 175.182 49.5896 175.227 50.0446C175.273 50.4995 175.318 50.5905 175.636 50.636H176.182C176.273 50.636 176.318 50.636 176.318 50.727C176.318 50.818 176.273 50.818 176.136 50.818H173.182C173.045 50.818 173 50.7725 173 50.727C173 50.6815 173 50.636 173.136 50.636H173.5C173.727 50.5905 173.773 50.3631 173.818 50.0446C173.864 49.7261 173.864 48.7707 173.864 47.8153V43.7663C173.818 43.4023 173.773 43.2658 173.409 43.1748H173C172.864 43.1748 172.818 43.1748 172.818 43.0838C172.818 42.9929 172.909 42.9929 173.045 42.9929H175.864C176 42.9929 176.091 43.0384 176.091 43.0838C176.091 43.1293 176 43.1748 175.909 43.1748H175.591C175.318 43.2203 175.227 43.4023 175.182 43.7663V46.223C175.182 46.2351 175.187 46.2466 175.195 46.2552C175.204 46.2637 175.215 46.2685 175.227 46.2685H179.227Z" fill="black"/>
<path d="M192.636 45.9955V43.7663C192.591 43.4023 192.5 43.2203 192.273 43.1748H191.909C191.773 43.1748 191.727 43.1748 191.727 43.0838C191.727 42.9929 191.818 42.9929 192 42.9929H194.636C194.773 42.9929 194.818 43.0384 194.818 43.0838C194.818 43.1293 194.773 43.1748 194.682 43.1748H194.364C194.091 43.2203 194 43.4023 193.955 43.7663V47.8153C193.955 48.8162 193.955 49.6806 194 50.0901C194.045 50.4995 194.091 50.5905 194.409 50.636H194.955C195.045 50.636 195.091 50.636 195.091 50.727C195.091 50.818 195 50.818 194.909 50.818H191.955C191.818 50.818 191.773 50.7725 191.773 50.727C191.773 50.6815 191.773 50.636 191.909 50.636H192.318C192.5 50.5905 192.545 50.4086 192.591 50.0901C192.636 49.7716 192.636 48.8162 192.636 47.8153V45.9955Z" fill="black"/>
<path d="M206.591 49.4532C206.591 50.2266 206.727 50.4996 206.955 50.5905L207.5 50.6815C207.591 50.6815 207.682 50.6815 207.682 50.7725C207.682 50.8635 207.591 50.8635 207.409 50.8635H205C204.864 50.8635 204.773 50.8635 204.773 50.7725C204.773 50.6815 204.818 50.6815 204.955 50.6815H205.409C205.682 50.5905 205.727 50.2721 205.727 49.3622L205.818 43.1748C205.818 42.9474 205.864 42.8109 205.955 42.8109C206.045 42.8109 206.182 42.9474 206.364 43.1294C206.545 43.3113 208.045 44.9946 209.591 46.496C210.318 47.2239 211.727 48.7252 211.909 48.8617H211.955L211.818 44.1302C211.818 43.4933 211.727 43.3113 211.5 43.2203C211.312 43.1466 211.11 43.1156 210.909 43.1294C210.818 43.1294 210.773 43.1293 210.773 43.0384C210.773 42.9474 210.864 42.9474 211.045 42.9474H213.318C213.455 42.9474 213.545 42.9474 213.545 43.0384C213.545 43.1293 213.5 43.1294 213.364 43.1294H213.045C212.773 43.2203 212.682 43.4478 212.682 43.9938L212.545 50.5905C212.545 50.818 212.5 50.9545 212.409 50.9545C212.318 50.9545 212.182 50.818 212.045 50.727L209 47.6334C207.864 46.496 206.682 45.1766 206.5 44.9946H206.455L206.591 49.4532Z" fill="black"/>
<path d="M230.818 50.1356C230.818 50.4541 230.773 50.4541 230.682 50.5451C229.871 50.8611 229.006 51.0157 228.136 51C225.591 51 223.318 49.7716 223.318 46.9054C223.291 46.2262 223.445 45.552 223.764 44.9522C224.084 44.3524 224.558 43.8488 225.136 43.4933C225.993 43.0044 226.97 42.7678 227.955 42.8109C228.58 42.8229 229.203 42.8837 229.818 42.9929L230.636 43.0839C230.673 43.0839 230.707 43.0982 230.733 43.1238C230.758 43.1494 230.773 43.1841 230.773 43.2203C230.698 43.7934 230.667 44.3714 230.682 44.9492C230.682 45.0856 230.682 45.1311 230.591 45.1311C230.5 45.1311 230.5 45.0856 230.455 44.9947C230.46 44.6769 230.346 44.3686 230.136 44.1302C229.474 43.5789 228.634 43.2878 227.773 43.3113C227.029 43.2682 226.297 43.5125 225.727 43.9938C225.136 44.4487 224.773 45.2676 224.773 46.5415C224.773 48.7707 226.182 50.4541 228.409 50.4541C228.7 50.4717 228.992 50.441 229.273 50.3631C229.348 50.3263 229.41 50.2673 229.451 50.1941C229.491 50.1209 229.509 50.0369 229.5 49.9536V48.9982C229.513 48.5882 229.498 48.1778 229.455 47.7699C229.455 47.4059 229.364 47.2239 229.045 47.1329H228.636L228.455 47.0419C228.455 46.9509 228.545 46.9509 228.682 46.9509H231.409C231.545 46.9509 231.636 46.9509 231.636 47.0419L231.5 47.1329H231.227C230.909 47.2239 230.818 47.4059 230.818 47.7699V50.1356Z" fill="black"/>
<path d="M241.773 50.727C241.591 50.636 241.545 50.5905 241.545 50.3631C241.54 49.9064 241.57 49.45 241.636 48.9982C241.636 48.8617 241.682 48.7252 241.727 48.7252C241.773 48.7252 241.864 48.8162 241.864 48.9072C241.875 49.0918 241.906 49.2747 241.955 49.4532C242.039 49.7776 242.237 50.0612 242.512 50.2529C242.787 50.4447 243.121 50.5321 243.455 50.4996C243.622 50.5119 243.79 50.4911 243.949 50.4383C244.108 50.3855 244.255 50.3017 244.382 50.1918C244.509 50.0819 244.613 49.948 244.687 49.7978C244.762 49.6476 244.807 49.4841 244.818 49.3167C244.818 48.8162 244.682 48.3158 243.818 47.6334L243.318 47.2694C242.182 46.3595 241.773 45.6316 241.773 44.7672C241.773 43.9028 242.727 42.8109 244.182 42.8109C244.658 42.7972 245.134 42.8587 245.591 42.9929C245.627 42.9929 245.662 43.0072 245.687 43.0328C245.713 43.0584 245.727 43.0932 245.727 43.1293C245.727 43.2658 245.682 43.5388 245.682 44.3577C245.682 45.1766 245.682 44.6762 245.591 44.6762C245.5 44.6762 245.455 44.6307 245.455 44.4942C245.438 44.2435 245.343 44.0045 245.182 43.8118C245.059 43.6264 244.889 43.4778 244.689 43.3816C244.489 43.2855 244.267 43.2455 244.045 43.2658C243.891 43.2464 243.735 43.2601 243.586 43.3062C243.438 43.3523 243.301 43.4297 243.184 43.5331C243.068 43.6365 242.975 43.7635 242.912 43.9058C242.849 44.048 242.817 44.2021 242.818 44.3577C242.818 44.8582 243.045 45.2221 243.909 45.8591L244.227 46.0865C245.455 47.0419 245.909 47.7698 245.909 48.7707C245.911 49.1292 245.826 49.4827 245.659 49.8001C245.493 50.1174 245.251 50.3889 244.955 50.5905C244.443 50.88 243.86 51.0217 243.273 51C242.76 51.0109 242.249 50.918 241.773 50.727Z" fill="black"/>
<path d="M268.818 45.9955C268.847 45.2522 268.832 44.5078 268.773 43.7663C268.773 43.4023 268.636 43.2203 268.409 43.1748H268.045C267.955 43.1748 267.864 43.1748 267.864 43.0838C267.864 42.9929 267.955 42.9929 268.136 42.9929H270.773C270.909 42.9929 271 43.0384 271 43.0838C271 43.1293 270.909 43.1748 270.818 43.1748H270.5C270.227 43.2203 270.136 43.4023 270.136 43.7663C270.078 44.5078 270.062 45.2522 270.091 45.9955V47.8153C270.091 48.8162 270.091 49.6806 270.136 50.0901C270.182 50.4995 270.227 50.5905 270.545 50.636H271.091C271.182 50.636 271.273 50.636 271.273 50.727C271.273 50.818 271.182 50.818 271.045 50.818H268.091C267.955 50.818 267.909 50.7725 267.909 50.727C267.909 50.6815 267.955 50.636 268.091 50.636H268.455C268.636 50.6057 268.727 50.4237 268.727 50.0901C268.817 49.3354 268.847 48.5748 268.818 47.8153V45.9955Z" fill="black"/>
<path d="M282.727 49.4532C282.773 50.2266 282.909 50.4996 283.091 50.5905L283.636 50.6815C283.773 50.6815 283.818 50.6815 283.818 50.7725C283.818 50.8635 283.727 50.8635 283.591 50.8635H281.136C281 50.8635 280.909 50.8635 280.909 50.7725C280.909 50.6815 281 50.6815 281.091 50.6815H281.545C281.818 50.5905 281.864 50.2721 281.864 49.3622L282 43.1748C282 42.9474 282 42.8109 282.136 42.8109C282.273 42.8109 282.318 42.9474 282.5 43.1294C282.682 43.3113 284.227 44.9946 285.727 46.496C286.455 47.2239 287.864 48.7252 288.045 48.8617H288.091L288 44.1302C287.955 43.4933 287.864 43.3113 287.636 43.2203C287.464 43.1489 287.277 43.1178 287.091 43.1294C286.955 43.1294 286.909 43.1293 286.909 43.0384C286.909 42.9474 287 42.9474 287.182 42.9474H289.455C289.591 42.9474 289.727 42.9474 289.727 43.0384C289.727 43.1293 289.636 43.1294 289.5 43.1294H289.182C288.909 43.2203 288.818 43.4478 288.818 43.9938L288.682 50.5905C288.682 50.818 288.682 50.9545 288.545 50.9545C288.409 50.9545 288.318 50.818 288.227 50.727L285.136 47.6334C284 46.496 282.818 45.1766 282.636 44.9946L282.727 49.4532Z" fill="black"/>
<path d="M300.773 49.8626C300.367 49.4826 300.041 49.0246 299.816 48.5159C299.591 48.0072 299.471 47.4583 299.462 46.902C299.454 46.3457 299.557 45.7934 299.767 45.2781C299.976 44.7628 300.288 44.295 300.682 43.9028C301.455 43.2203 302.455 42.8109 304 42.8109L305.5 42.9019L306.545 43.0839C306.682 43.0839 306.727 43.1293 306.727 43.2203C306.727 43.3113 306.682 43.4023 306.636 43.8118V44.9037C306.636 45.0856 306.591 45.1766 306.5 45.1766C306.409 45.1766 306.409 45.0856 306.409 44.9492C306.369 44.5837 306.228 44.2368 306 43.9483C305.386 43.4887 304.629 43.2629 303.864 43.3113C303.154 43.2604 302.453 43.4889 301.909 43.9483C301.136 44.6762 300.955 45.6771 300.955 46.678C300.955 49.1802 302.818 50.4086 304.227 50.4086C305.636 50.4086 305.727 50.2721 306.136 49.8171C306.301 49.6155 306.424 49.3837 306.5 49.1347C306.545 48.9527 306.545 48.9072 306.636 48.9072C306.727 48.9072 306.727 48.9982 306.727 49.0892C306.727 49.1802 306.591 50.0901 306.5 50.4541C306.409 50.818 306.409 50.6815 306.227 50.7725C305.619 50.9296 304.992 51.0061 304.364 51C302.909 51 301.727 50.6815 300.773 49.8626Z" fill="black"/>
<path d="M316.545 50.1811C316.545 50.0122 316.613 49.8502 316.732 49.7307C316.851 49.6113 317.013 49.5442 317.182 49.5442C317.263 49.5379 317.345 49.5485 317.422 49.5754C317.499 49.6023 317.57 49.6449 317.629 49.7004C317.689 49.756 317.737 49.8233 317.769 49.8982C317.802 49.9731 317.818 50.0539 317.818 50.1356C317.824 50.223 317.813 50.3107 317.783 50.3933C317.754 50.4759 317.708 50.5516 317.649 50.6157C317.589 50.6797 317.517 50.7308 317.436 50.7656C317.356 50.8004 317.269 50.8182 317.182 50.818C317.097 50.8249 317.011 50.8131 316.93 50.7835C316.85 50.754 316.777 50.7073 316.717 50.6467C316.656 50.5861 316.609 50.5131 316.58 50.4327C316.55 50.3523 316.539 50.2665 316.545 50.1811Z" fill="black"/>
<path d="M3.22729 38.0794H320" stroke="black"/>
</svg>
